<svg xmlns="http://www.w3.org/2000/svg" viewBox="0 0 2146.09 2145.75"><defs><style>.cls-1{fill:#231f20;}.cls-1,.cls-2,.cls-3,.cls-4,.cls-5,.cls-6{fill-rule:evenodd;}.cls-2{fill:#f13e2d;}.cls-3{fill:#fefefe;}.cls-4{fill:#a09d9d;}.cls-5{fill:#58585a;}.cls-6{fill:#363638;}</style></defs><g id="圖層_2" data-name="圖層 2"><g id="Layer_1" data-name="Layer 1"><g id="WS3Sdq"><path class="cls-1" d="M2146,1076c6.32,538.9-433.46,1063.68-1064.07,1069.68C488.09,2151.35-.22,1675.59,0,1075.49.23,456.08,497.65,7.54,1057.91.1,1653.94-7.83,2147.21,472.83,2146,1076Z"/><path class="cls-2" d="M424.57,256c36.11-31.36,76-57.35,117-81.68C664.25,101.42,796.42,54.28,938,37.74c312.74-36.51,590.37,46.8,827.46,254.8,179.84,157.78,289.81,357,334.8,592,8.25,43,12.6,86.64,15.46,130.36,1,14.79.45,15.05-13.2,9.51-74.49-30.23-147.26-64.56-222.37-93.33-60.08-23-121.46-41.73-184.59-54.2-11.24-2.22-15.91-7-18.74-18.09C1638.26,708,1502,595.17,1347.5,585.37c-159.35-10.13-298.11,71.93-365.57,216.75-4.65,10-10.07,13.2-21,13.53-184.12,5.58-364.5,35-541.45,86-125.19,36.13-247.4,80.71-368.64,128.15-6.29,2.46-12.66,4.71-20.16,7.48-1.84-13.11.13-25.07,1-37.07,17.23-235.06,104.24-440.88,259-618.3,8.09-9.27,16.81-18,25.24-27,3.76,6.4-1.38,10.38-4.32,14.69-26,38.06-45.21,78.95-52.5,124.82-8.66,54.64,1.45,104.4,40.93,145.17,21.48,22.19,48.41,35.92,78.7,42.35,57.69,12.23,113.35,3.91,167.57-17.45a394.74,394.74,0,0,0,134.76-88.19C732.69,524.94,771.15,465.21,781,391c13.41-101.7-45.65-171.69-137.83-184.77-70.82-10.05-135.58,9.33-197.13,43C439.48,252.74,433.94,260.87,424.57,256Z"/><path class="cls-3" d="M387.27,1183.54a2594.48,2594.48,0,0,1,299.29-62c67.58-10,135.48-16.82,203.57-21.78,26.25-1.91,52.61-2.43,78.86-4.32,8.29-.6,10.8,3.76,13.67,9.88,46.65,99.41,121.35,168.59,226.41,200.89,126.55,38.91,242.48,14.53,345.87-68a326.74,326.74,0,0,0,70.59-78.11c4.89-7.56,9.63-9.67,18.76-7.76,129.68,27,255.8,66,379.73,112.39,19.09,7.15,37.87,15.26,57.27,21.45,10.16,3.25,10.76,8.52,8.68,17-10.53,42.94-22.56,85.43-38.14,126.84-21.58,57.37-46.61,113.11-78.77,165.43-3.08,5-6.86,9.62-10.32,14.41-10.9,16.15-27.28,26.72-41.38,39.46a956.93,956.93,0,0,1-128.73,98.1c-81.45,51.75-168.94,89.52-262,114.78a887,887,0,0,1-172.07,29.14c-156.82,10.75-307.51-14.88-451.51-78.73a917.82,917.82,0,0,1-189.35-112.49c-59.07-45.6-112.32-97.33-159-156q-123-154.52-174.39-344.78C382.79,1193.62,380.2,1187.68,387.27,1183.54Z"/><path class="cls-4" d="M387.27,1183.54c-3,3.91-1.71,7.87-.6,12.1a917.58,917.58,0,0,0,105.41,247.93q86.63,141.45,216.8,245c117.24,92.75,249.2,153.38,395.27,183.46,47.48,9.77,95.61,14.89,144.17,17.1,124,5.64,244.09-13,360.61-55.06a925.33,925.33,0,0,0,200.75-101.84c49.65-33.16,94.42-72.15,139-111.47,4.43-3.91,9.33-7.28,14-10.91-8.48,22-23.39,40-36.45,59.08-41.44,60.51-90.47,114.64-144,164.58a1037.35,1037.35,0,0,1-467.2,249.81A1046,1046,0,0,1,1145.92,2109c-24.56,1.72-49.18,2.25-73.66,2.89-33.83.89-67.88-1.72-101.64-5a1031.51,1031.51,0,0,1-272-64.19C586,1999.54,483.63,1939,392.23,1860.05Q135,1637.87,54.31,1307.76c-2.81-11.47.43-15.43,10.64-19.31,100.62-38.26,202.52-72.6,306.46-100.74C376.69,1186.29,382,1184.93,387.27,1183.54Z"/><path class="cls-5" d="M106.29,1030.25c50.26-19.18,100.66-38,151.52-55.55,57.6-19.92,115.38-39.28,174.29-54.75,73.32-19.25,146.83-37.88,221.68-50.61,58.05-9.87,116.24-18.42,175-23.34,36.77-3.07,73.46-6.5,110.37-7.84,14.8-.53,29.63-2.14,44.47-1.85,7,.13,9.4-3.53,11.64-9.22,28.55-72.43,76.37-129,142.3-169.94A334.68,334.68,0,0,1,1277,608.68c93.91-10.9,178.84,12.09,253.85,69.09,66.68,50.67,109.39,117.71,128,199.49,2.59,11.37,7.66,15.79,18.51,17.85,110,20.89,213.44,61.18,315.29,106.37,39.59,17.56,79.62,34.1,119.7,50.53,7.41,3,11.16,7.16,11.41,14.78,2.23,66.37.34,132.41-15.23,197.44-2.37,9.89-7.7,7.8-14,5.3q-101.25-40.2-205-73.41a2470.82,2470.82,0,0,0-258.2-67.73c-8.75-1.79-11.53,2.51-14.86,7.95-27.78,45.27-63.8,82.59-108.56,111.14-48.39,30.88-101,49-158.62,53.91-82.42,7.07-157.32-13-225.65-58.76-59-39.45-100.64-93.21-127.65-158.36-3.84-9.26-8.74-10.93-17.14-10.4-42.32,2.66-84.75,4.06-127,7.9-55.64,5.06-111.17,11.12-166.54,19.12-76,11-151.12,25.73-225.92,42.46-28,6.27-55.11,16.58-83,23.24-35,8.35-69.2,19.59-103.79,29.4-6.08,1.73-11.48,5.81-18.17,5.42-12.84,4.55-24.33-1-35.41-5.73-67.11-28.88-105.91-79.77-116.76-152C101.5,1038.5,100.59,1033.42,106.29,1030.25Z"/><path class="cls-3" d="M424.57,256c5.37,1,8.54-3.23,12.4-5.46,56.34-32.57,116.18-52,182.07-50.34,78,2,140,45.09,160,112.11C790.6,351,788.34,389.86,776.73,428c-27.33,89.77-85.6,155.63-163.06,205.48-60.78,39.11-127,61.1-200.34,57.22-83.65-4.43-145.5-56.27-158-133.37-7-43.29,1.51-84.68,17.89-124.72,9.71-23.73,22.47-45.8,37.19-66.78,2.32-3.29,6.47-5.86,5.56-10.89q15.68-16.69,31.34-33.39C370.52,296.73,398,276.9,424.57,256Z"/><path class="cls-6" d="M106.29,1030.25c-4.63,12.45.31,24.59,3.44,35.81,19.35,69.31,64.17,114.18,133.34,134.41,3.58,1,7.58.66,11.38.94-34.33,11.61-68.74,23-103,34.86-33.1,11.48-66.41,22.46-98.49,36.62-7.79,3.45-9.61-.1-11.31-6.39-5.73-21.23-8.37-43-12.08-64.63-7.22-42.12-4.39-84.58-5.17-126.92-.17-9.44,2.88-14.52,12.18-17.86C60,1048.69,82.38,1037.45,106.29,1030.25Z"/><path class="cls-1" d="M1329,690.5c139.58-1.69,257.39,114.14,256,258.26-1.4,140.45-113.46,254.93-257.78,254.57-143.81-.36-255.48-117-255.41-257C1071.84,806,1186.47,688.38,1329,690.5Z"/><path class="cls-3" d="M1093.55,944.85c1.59-129.94,107.81-234.6,236.54-233.06,132.69,1.59,234.5,107.87,232.66,242.91-1.72,126.37-110.29,228.29-241.23,226.43C1196.16,1179.36,1092,1071.4,1093.55,944.85Z"/><path class="cls-1" d="M1328.72,765.91c100.28.54,181.08,82,180.25,181.67s-81.54,179.93-180.93,179.68c-100.56-.25-180.91-81.83-180.12-182.9C1148.67,845.79,1230.16,765.36,1328.72,765.91Z"/><path class="cls-3" d="M1494.73,949.46c-4.54,97.06-80.73,167.5-176.24,162.94-88.35-4.21-161-83.72-156.43-171.24,4.84-93.08,82.24-165.27,172.39-160.79C1425.48,784.9,1498.81,862.26,1494.73,949.46Z"/></g></g></g></svg>